<svg width="532" height="618" viewBox="0 0 532 618" fill="none" xmlns="http://www.w3.org/2000/svg">
<path d="M80.1534 347.154V438.583V481.798L366.653 322.01L531.042 322.01L0.153412 617.993L0.153412 550.622L0.153412 483.251L0.153412 391.663L0.153412 227.779L0.153412 63.8956H80.1534L80.1534 347.154Z" fill="#212121"/>
<path d="M120.153 413.396L284.653 322.01H120.153V413.396Z" fill="#212121"/>
<path d="M79.6986 270.839V179.41V136.195L365.119 295.983L528.889 295.983L0 0L0 67.3712L0 134.742L0 226.33L0 390.214L0 554.098H79.6986L79.6986 270.839Z" fill="#212121"/>
<path d="M119.548 204.598L283.428 295.983H119.548V204.598Z" fill="#212121"/>
</svg>
